<svg version="1.1" xmlns="http://www.w3.org/2000/svg" xmlns:xlink="http://www.w3.org/1999/xlink" width="334.805" height="334.806" style="" xml:space="preserve"><rect id="backgroundrect" width="100%" height="100%" x="0" y="0" fill="none" stroke="none"/>
















<g class="currentLayer" style=""><title>Layer 1</title><g id="svg_1" class="" fill="#ffffff" fill-opacity="1">
	<g id="svg_2" fill="#ffffff" fill-opacity="1">
		<path d="M298.909,121.78H259.2V25.347H75.6v96.433H35.888C16.097,121.78,0,137.882,0,157.668v79.65    c0,19.786,16.097,35.891,35.888,35.891h36.115v36.25h190.798v-36.25h36.118c19.786,0,35.886-16.1,35.886-35.891v-79.65    C334.8,137.882,318.706,121.78,298.909,121.78z M91.8,41.547H243v80.233H91.8V41.547z M246.602,273.209v20.05H88.198v-20.05    v-14.871h158.398v14.871H246.602z M318.6,237.318c0,10.853-8.828,19.69-19.691,19.69h-36.112v-14.871H71.998v14.871h-36.11    c-10.86,0-19.688-8.838-19.688-19.69v-79.65c0-10.853,8.828-19.688,19.688-19.688H75.6v0.042h183.6v-0.042h39.709    c10.853,0,19.691,8.836,19.691,19.688V237.318z" id="svg_3" fill="#ffffff" fill-opacity="1"/>
		<path d="M271.798,174.095c10.446,0,10.446-16.2,0-16.2C261.351,157.895,261.351,174.095,271.798,174.095z" id="svg_4" fill="#ffffff" fill-opacity="1"/>
		<path d="M286.2,202.894H48.6c-4.478,0-8.1,3.628-8.1,8.1s3.623,8.1,8.1,8.1h237.6c4.478,0,8.101-3.628,8.101-8.1    S290.677,202.894,286.2,202.894z" id="svg_5" fill="#ffffff" fill-opacity="1"/>
		<path d="M209.746,62.786h-84.691c-4.477,0-8.1,3.628-8.1,8.1c0,4.469,3.623,8.1,8.1,8.1h84.696c4.478,0,8.101-3.631,8.101-8.1    C217.851,66.414,214.223,62.786,209.746,62.786z" id="svg_6" fill="#ffffff" fill-opacity="1"/>
		<path d="M209.746,89.786h-84.691c-4.477,0-8.1,3.628-8.1,8.1c0,4.469,3.623,8.1,8.1,8.1h84.696c4.478,0,8.101-3.631,8.101-8.1    C217.851,93.414,214.223,89.786,209.746,89.786z" id="svg_7" fill="#ffffff" fill-opacity="1"/>
	</g>
</g><g id="svg_8" class="" fill="#ffffff" fill-opacity="1">
</g><g id="svg_9" class="" fill="#ffffff" fill-opacity="1">
</g><g id="svg_10" class="" fill="#ffffff" fill-opacity="1">
</g><g id="svg_11" class="" fill="#ffffff" fill-opacity="1">
</g><g id="svg_12" class="" fill="#ffffff" fill-opacity="1">
</g><g id="svg_13" class="" fill="#ffffff" fill-opacity="1">
</g><g id="svg_14" class="" fill="#ffffff" fill-opacity="1">
</g><g id="svg_15" class="" fill="#ffffff" fill-opacity="1">
</g><g id="svg_16" class="" fill="#ffffff" fill-opacity="1">
</g><g id="svg_17" class="" fill="#ffffff" fill-opacity="1">
</g><g id="svg_18" class="" fill="#ffffff" fill-opacity="1">
</g><g id="svg_19" class="" fill="#ffffff" fill-opacity="1">
</g><g id="svg_20" class="" fill="#ffffff" fill-opacity="1">
</g><g id="svg_21" class="" fill="#ffffff" fill-opacity="1">
</g><g id="svg_22" class="" fill="#ffffff" fill-opacity="1">
</g></g></svg>